<mxfile host="Electron" agent="Mozilla/5.0 (Windows NT 10.0; Win64; x64) AppleWebKit/537.36 (KHTML, like Gecko) draw.io/24.7.8 Chrome/128.0.6613.36 Electron/32.0.1 Safari/537.36" version="24.7.8">
  <diagram name="Page-1" id="3ou8K2hVmdjJOQco7QGz">
    <mxGraphModel dx="1036" dy="614" grid="1" gridSize="10" guides="1" tooltips="1" connect="1" arrows="1" fold="1" page="1" pageScale="1" pageWidth="827" pageHeight="1169" math="0" shadow="0">
      <root>
        <mxCell id="0" />
        <mxCell id="1" parent="0" />
        <mxCell id="YfAJHf1cl0Xpq2evbPGr-1" value="&lt;h1 style=&quot;margin-top: 0px;&quot;&gt;&lt;div style=&quot;-webkit-user-drag: none; -webkit-tap-highlight-color: transparent; margin: 0px; padding: 0px; user-select: text; clear: both; cursor: text; overflow: visible; position: relative; direction: ltr; font-family: &amp;quot;Segoe UI&amp;quot;, &amp;quot;Segoe UI Web&amp;quot;, Arial, Verdana, sans-serif; font-size: 12px; font-weight: 400; background-color: rgb(255, 255, 255);&quot; class=&quot;OutlineElement Ltr SCXW4411604 BCX0&quot;&gt;&lt;p style=&quot;-webkit-user-drag: none; -webkit-tap-highlight-color: transparent; margin: 0px 0px 10.6667px; padding: 0px; user-select: text; overflow-wrap: break-word; white-space-collapse: preserve; vertical-align: baseline; font-kerning: none; background-color: transparent; color: windowtext;&quot; lang=&quot;FR-FR&quot; class=&quot;Paragraph SCXW4411604 BCX0&quot;&gt;&lt;span style=&quot;-webkit-user-drag: none; -webkit-tap-highlight-color: transparent; margin: 0px; padding: 0px; user-select: text; font-variant-ligatures: none !important; font-size: 12pt; line-height: 20.925px; font-family: Aptos, Aptos_EmbeddedFont, Aptos_MSFontService, sans-serif; font-weight: bold;&quot; class=&quot;TextRun SCXW4411604 BCX0&quot; lang=&quot;FR-FR&quot; data-contrast=&quot;auto&quot;&gt;8. Base de données pour l’analyse financière&lt;/span&gt;&lt;span style=&quot;-webkit-user-drag: none; -webkit-tap-highlight-color: transparent; margin: 0px; padding: 0px; user-select: text; font-size: 12pt; line-height: 20.925px; font-family: Aptos, Aptos_EmbeddedFont, Aptos_MSFontService, sans-serif;&quot; data-ccp-props=&quot;{&amp;quot;201341983&amp;quot;:0,&amp;quot;335559739&amp;quot;:160,&amp;quot;335559740&amp;quot;:279}&quot; class=&quot;EOP SCXW4411604 BCX0&quot;&gt;&amp;nbsp;&lt;/span&gt;&lt;/p&gt;&lt;/div&gt;&lt;div style=&quot;-webkit-user-drag: none; -webkit-tap-highlight-color: transparent; margin: 0px; padding: 0px; user-select: text; clear: both; cursor: text; overflow: visible; position: relative; direction: ltr; font-family: &amp;quot;Segoe UI&amp;quot;, &amp;quot;Segoe UI Web&amp;quot;, Arial, Verdana, sans-serif; font-size: 12px; font-weight: 400; background-color: rgb(255, 255, 255);&quot; class=&quot;OutlineElement Ltr SCXW4411604 BCX0&quot;&gt;&lt;p style=&quot;-webkit-user-drag: none; -webkit-tap-highlight-color: transparent; margin: 0px 0px 10.6667px; padding: 0px; user-select: text; overflow-wrap: break-word; white-space-collapse: preserve; vertical-align: baseline; font-kerning: none; background-color: transparent; color: windowtext;&quot; lang=&quot;FR-FR&quot; class=&quot;Paragraph SCXW4411604 BCX0&quot;&gt;&lt;span style=&quot;-webkit-user-drag: none; -webkit-tap-highlight-color: transparent; margin: 0px; padding: 0px; user-select: text; font-variant-ligatures: none !important; font-size: 12pt; line-height: 20.925px; font-family: Aptos, Aptos_EmbeddedFont, Aptos_MSFontService, sans-serif;&quot; class=&quot;TextRun SCXW4411604 BCX0&quot; lang=&quot;FR-FR&quot; data-contrast=&quot;auto&quot;&gt;On vous demande de modéliser le schéma d&#39;une base de données pour une application d&#39;analyse financière permettant d&#39;analyser des actions et des indices. &lt;/span&gt;&lt;span style=&quot;-webkit-user-drag: none; -webkit-tap-highlight-color: transparent; margin: 0px; padding: 0px; user-select: text; font-size: 12pt; line-height: 20.925px; font-family: Aptos, Aptos_EmbeddedFont, Aptos_MSFontService, sans-serif;&quot; data-ccp-props=&quot;{&amp;quot;201341983&amp;quot;:0,&amp;quot;335559739&amp;quot;:160,&amp;quot;335559740&amp;quot;:279}&quot; class=&quot;EOP SCXW4411604 BCX0&quot;&gt;&amp;nbsp;&lt;/span&gt;&lt;/p&gt;&lt;/div&gt;&lt;div style=&quot;-webkit-user-drag: none; -webkit-tap-highlight-color: transparent; margin: 0px; padding: 0px; user-select: text; clear: both; cursor: text; overflow: visible; position: relative; direction: ltr; font-family: &amp;quot;Segoe UI&amp;quot;, &amp;quot;Segoe UI Web&amp;quot;, Arial, Verdana, sans-serif; font-size: 12px; font-weight: 400; background-color: rgb(255, 255, 255);&quot; class=&quot;OutlineElement Ltr SCXW4411604 BCX0&quot;&gt;&lt;p style=&quot;-webkit-user-drag: none; -webkit-tap-highlight-color: transparent; margin: 0px 0px 10.6667px; padding: 0px; user-select: text; overflow-wrap: break-word; white-space-collapse: preserve; vertical-align: baseline; font-kerning: none; background-color: transparent; color: windowtext;&quot; lang=&quot;FR-FR&quot; class=&quot;Paragraph SCXW4411604 BCX0&quot;&gt;&lt;span style=&quot;-webkit-user-drag: none; -webkit-tap-highlight-color: transparent; margin: 0px; padding: 0px; user-select: text; font-variant-ligatures: none !important; font-size: 12pt; line-height: 20.925px; font-family: Aptos, Aptos_EmbeddedFont, Aptos_MSFontService, sans-serif;&quot; class=&quot;TextRun SCXW4411604 BCX0&quot; lang=&quot;FR-FR&quot; data-contrast=&quot;auto&quot;&gt;Pour chaque &lt;/span&gt;&lt;span style=&quot;-webkit-user-drag: none; -webkit-tap-highlight-color: transparent; margin: 0px; padding: 0px; user-select: text; outline: transparent solid 1px; font-variant-ligatures: none !important; background-color: rgb(0, 0, 255); font-size: 12pt; line-height: 20.925px; font-family: Aptos, Aptos_EmbeddedFont, Aptos_MSFontService, sans-serif;&quot; class=&quot;TextRun Highlight SCXW4411604 BCX0&quot; lang=&quot;FR-FR&quot; data-contrast=&quot;auto&quot;&gt;&lt;span style=&quot;-webkit-user-drag: none; -webkit-tap-highlight-color: transparent; margin: 0px; padding: 0px; user-select: text;&quot; class=&quot;NormalTextRun SCXW4411604 BCX0&quot;&gt;produit financier&lt;/span&gt;&lt;/span&gt;&lt;span style=&quot;-webkit-user-drag: none; -webkit-tap-highlight-color: transparent; margin: 0px; padding: 0px; user-select: text; font-variant-ligatures: none !important; font-size: 12pt; line-height: 20.925px; font-family: Aptos, Aptos_EmbeddedFont, Aptos_MSFontService, sans-serif;&quot; class=&quot;TextRun SCXW4411604 BCX0&quot; lang=&quot;FR-FR&quot; data-contrast=&quot;auto&quot;&gt;, on veut pouvoir consulter des informations générales comme son &lt;/span&gt;&lt;span style=&quot;-webkit-user-drag: none; -webkit-tap-highlight-color: transparent; margin: 0px; padding: 0px; user-select: text; font-variant-ligatures: none !important; color: rgb(15, 158, 213); font-size: 12pt; line-height: 20.925px; font-family: Aptos, Aptos_EmbeddedFont, Aptos_MSFontService, sans-serif;&quot; class=&quot;TextRun SCXW4411604 BCX0&quot; lang=&quot;FR-FR&quot; data-contrast=&quot;none&quot;&gt;nom&lt;/span&gt;&lt;span style=&quot;-webkit-user-drag: none; -webkit-tap-highlight-color: transparent; margin: 0px; padding: 0px; user-select: text; font-variant-ligatures: none !important; font-size: 12pt; line-height: 20.925px; font-family: Aptos, Aptos_EmbeddedFont, Aptos_MSFontService, sans-serif;&quot; class=&quot;TextRun SCXW4411604 BCX0&quot; lang=&quot;FR-FR&quot; data-contrast=&quot;auto&quot;&gt;, son &lt;/span&gt;&lt;span style=&quot;-webkit-user-drag: none; -webkit-tap-highlight-color: transparent; margin: 0px; padding: 0px; user-select: text; font-variant-ligatures: none !important; color: rgb(15, 158, 213); font-size: 12pt; line-height: 20.925px; font-family: Aptos, Aptos_EmbeddedFont, Aptos_MSFontService, sans-serif;&quot; class=&quot;TextRun SCXW4411604 BCX0&quot; lang=&quot;FR-FR&quot; data-contrast=&quot;none&quot;&gt;code&lt;/span&gt;&lt;span style=&quot;-webkit-user-drag: none; -webkit-tap-highlight-color: transparent; margin: 0px; padding: 0px; user-select: text; font-variant-ligatures: none !important; font-size: 12pt; line-height: 20.925px; font-family: Aptos, Aptos_EmbeddedFont, Aptos_MSFontService, sans-serif;&quot; class=&quot;TextRun SCXW4411604 BCX0&quot; lang=&quot;FR-FR&quot; data-contrast=&quot;auto&quot;&gt; et le &lt;/span&gt;&lt;span style=&quot;-webkit-user-drag: none; -webkit-tap-highlight-color: transparent; margin: 0px; padding: 0px; user-select: text; font-variant-ligatures: none !important; color: rgb(15, 158, 213); font-size: 12pt; line-height: 20.925px; font-family: Aptos, Aptos_EmbeddedFont, Aptos_MSFontService, sans-serif;&quot; class=&quot;TextRun SCXW4411604 BCX0&quot; lang=&quot;FR-FR&quot; data-contrast=&quot;none&quot;&gt;marché&lt;/span&gt;&lt;span style=&quot;-webkit-user-drag: none; -webkit-tap-highlight-color: transparent; margin: 0px; padding: 0px; user-select: text; font-variant-ligatures: none !important; font-size: 12pt; line-height: 20.925px; font-family: Aptos, Aptos_EmbeddedFont, Aptos_MSFontService, sans-serif;&quot; class=&quot;TextRun SCXW4411604 BCX0&quot; lang=&quot;FR-FR&quot; data-contrast=&quot;auto&quot;&gt; auquel il appartient. &lt;/span&gt;&lt;span style=&quot;-webkit-user-drag: none; -webkit-tap-highlight-color: transparent; margin: 0px; padding: 0px; user-select: text; font-size: 12pt; line-height: 20.925px; font-family: Aptos, Aptos_EmbeddedFont, Aptos_MSFontService, sans-serif;&quot; data-ccp-props=&quot;{&amp;quot;201341983&amp;quot;:0,&amp;quot;335559739&amp;quot;:160,&amp;quot;335559740&amp;quot;:279}&quot; class=&quot;EOP SCXW4411604 BCX0&quot;&gt;&amp;nbsp;&lt;/span&gt;&lt;/p&gt;&lt;/div&gt;&lt;div style=&quot;-webkit-user-drag: none; -webkit-tap-highlight-color: transparent; margin: 0px; padding: 0px; user-select: text; clear: both; cursor: text; overflow: visible; position: relative; direction: ltr; font-family: &amp;quot;Segoe UI&amp;quot;, &amp;quot;Segoe UI Web&amp;quot;, Arial, Verdana, sans-serif; font-size: 12px; font-weight: 400; background-color: rgb(255, 255, 255);&quot; class=&quot;OutlineElement Ltr SCXW4411604 BCX0&quot;&gt;&lt;p style=&quot;-webkit-user-drag: none; -webkit-tap-highlight-color: transparent; margin: 0px 0px 10.6667px; padding: 0px; user-select: text; overflow-wrap: break-word; white-space-collapse: preserve; vertical-align: baseline; font-kerning: none; background-color: transparent; color: windowtext;&quot; lang=&quot;FR-FR&quot; class=&quot;Paragraph SCXW4411604 BCX0&quot;&gt;&lt;span style=&quot;-webkit-user-drag: none; -webkit-tap-highlight-color: transparent; margin: 0px; padding: 0px; user-select: text; font-variant-ligatures: none !important; font-size: 12pt; line-height: 20.925px; font-family: Aptos, Aptos_EmbeddedFont, Aptos_MSFontService, sans-serif;&quot; class=&quot;TextRun SCXW4411604 BCX0&quot; lang=&quot;FR-FR&quot; data-contrast=&quot;auto&quot;&gt;Le &lt;/span&gt;&lt;span style=&quot;-webkit-user-drag: none; -webkit-tap-highlight-color: transparent; margin: 0px; padding: 0px; user-select: text; font-variant-ligatures: none !important; color: rgb(15, 158, 213); font-size: 12pt; line-height: 20.925px; font-family: Aptos, Aptos_EmbeddedFont, Aptos_MSFontService, sans-serif;&quot; class=&quot;TextRun SCXW4411604 BCX0&quot; lang=&quot;FR-FR&quot; data-contrast=&quot;none&quot;&gt;code&lt;/span&gt;&lt;span style=&quot;-webkit-user-drag: none; -webkit-tap-highlight-color: transparent; margin: 0px; padding: 0px; user-select: text; font-variant-ligatures: none !important; font-size: 12pt; line-height: 20.925px; font-family: Aptos, Aptos_EmbeddedFont, Aptos_MSFontService, sans-serif;&quot; class=&quot;TextRun SCXW4411604 BCX0&quot; lang=&quot;FR-FR&quot; data-contrast=&quot;auto&quot;&gt; détermine de manière univoque le produit financier et se compose de &lt;/span&gt;&lt;span style=&quot;-webkit-user-drag: none; -webkit-tap-highlight-color: transparent; margin: 0px; padding: 0px; user-select: text; font-variant-ligatures: none !important; color: rgb(15, 158, 213); font-size: 12pt; line-height: 20.925px; font-family: Aptos, Aptos_EmbeddedFont, Aptos_MSFontService, sans-serif;&quot; class=&quot;TextRun SCXW4411604 BCX0&quot; lang=&quot;FR-FR&quot; data-contrast=&quot;none&quot;&gt;&lt;u&gt;maximum quatre caractères&lt;/u&gt;&lt;/span&gt;&lt;span style=&quot;-webkit-user-drag: none; -webkit-tap-highlight-color: transparent; margin: 0px; padding: 0px; user-select: text; font-variant-ligatures: none !important; font-size: 12pt; line-height: 20.925px; font-family: Aptos, Aptos_EmbeddedFont, Aptos_MSFontService, sans-serif;&quot; class=&quot;TextRun SCXW4411604 BCX0&quot; lang=&quot;FR-FR&quot; data-contrast=&quot;auto&quot;&gt;. &lt;/span&gt;&lt;span style=&quot;-webkit-user-drag: none; -webkit-tap-highlight-color: transparent; margin: 0px; padding: 0px; user-select: text; font-size: 12pt; line-height: 20.925px; font-family: Aptos, Aptos_EmbeddedFont, Aptos_MSFontService, sans-serif;&quot; data-ccp-props=&quot;{&amp;quot;201341983&amp;quot;:0,&amp;quot;335559739&amp;quot;:160,&amp;quot;335559740&amp;quot;:279}&quot; class=&quot;EOP SCXW4411604 BCX0&quot;&gt;&amp;nbsp;&lt;/span&gt;&lt;/p&gt;&lt;/div&gt;&lt;div style=&quot;-webkit-user-drag: none; -webkit-tap-highlight-color: transparent; margin: 0px; padding: 0px; user-select: text; clear: both; cursor: text; overflow: visible; position: relative; direction: ltr; font-family: &amp;quot;Segoe UI&amp;quot;, &amp;quot;Segoe UI Web&amp;quot;, Arial, Verdana, sans-serif; font-size: 12px; font-weight: 400; background-color: rgb(255, 255, 255);&quot; class=&quot;OutlineElement Ltr SCXW4411604 BCX0&quot;&gt;&lt;p style=&quot;-webkit-user-drag: none; -webkit-tap-highlight-color: transparent; margin: 0px 0px 10.6667px; padding: 0px; user-select: text; overflow-wrap: break-word; white-space-collapse: preserve; vertical-align: baseline; font-kerning: none; background-color: transparent; color: windowtext;&quot; lang=&quot;FR-FR&quot; class=&quot;Paragraph SCXW4411604 BCX0&quot;&gt;&lt;span style=&quot;-webkit-user-drag: none; -webkit-tap-highlight-color: transparent; margin: 0px; padding: 0px; user-select: text; font-variant-ligatures: none !important; font-size: 12pt; line-height: 20.925px; font-family: Aptos, Aptos_EmbeddedFont, Aptos_MSFontService, sans-serif;&quot; class=&quot;TextRun SCXW4411604 BCX0&quot; lang=&quot;FR-FR&quot; data-contrast=&quot;auto&quot;&gt;La base de données devra également permettre de consulter l&#39;&lt;/span&gt;&lt;span style=&quot;-webkit-user-drag: none; -webkit-tap-highlight-color: transparent; margin: 0px; padding: 0px; user-select: text; outline: transparent solid 1px; font-variant-ligatures: none !important; background-color: rgb(0, 128, 0); font-size: 12pt; line-height: 20.925px; font-family: Aptos, Aptos_EmbeddedFont, Aptos_MSFontService, sans-serif;&quot; class=&quot;TextRun Highlight SCXW4411604 BCX0&quot; lang=&quot;FR-FR&quot; data-contrast=&quot;auto&quot;&gt;&lt;span style=&quot;-webkit-user-drag: none; -webkit-tap-highlight-color: transparent; margin: 0px; padding: 0px; user-select: text;&quot; class=&quot;NormalTextRun SCXW4411604 BCX0&quot;&gt;historique des cours&lt;/span&gt;&lt;/span&gt;&lt;span style=&quot;-webkit-user-drag: none; -webkit-tap-highlight-color: transparent; margin: 0px; padding: 0px; user-select: text; font-variant-ligatures: none !important; font-size: 12pt; line-height: 20.925px; font-family: Aptos, Aptos_EmbeddedFont, Aptos_MSFontService, sans-serif;&quot; class=&quot;TextRun SCXW4411604 BCX0&quot; lang=&quot;FR-FR&quot; data-contrast=&quot;auto&quot;&gt; d&#39;un produit financier : le &lt;/span&gt;&lt;span style=&quot;-webkit-user-drag: none; -webkit-tap-highlight-color: transparent; margin: 0px; padding: 0px; user-select: text; font-variant-ligatures: none !important; color: rgb(25, 107, 36); font-size: 12pt; line-height: 20.925px; font-family: Aptos, Aptos_EmbeddedFont, Aptos_MSFontService, sans-serif;&quot; class=&quot;TextRun SCXW4411604 BCX0&quot; lang=&quot;FR-FR&quot; data-contrast=&quot;none&quot;&gt;volume&lt;/span&gt;&lt;span style=&quot;-webkit-user-drag: none; -webkit-tap-highlight-color: transparent; margin: 0px; padding: 0px; user-select: text; font-variant-ligatures: none !important; font-size: 12pt; line-height: 20.925px; font-family: Aptos, Aptos_EmbeddedFont, Aptos_MSFontService, sans-serif;&quot; class=&quot;TextRun SCXW4411604 BCX0&quot; lang=&quot;FR-FR&quot; data-contrast=&quot;auto&quot;&gt;, le &lt;/span&gt;&lt;span style=&quot;-webkit-user-drag: none; -webkit-tap-highlight-color: transparent; margin: 0px; padding: 0px; user-select: text; font-variant-ligatures: none !important; color: rgb(25, 107, 36); font-size: 12pt; line-height: 20.925px; font-family: Aptos, Aptos_EmbeddedFont, Aptos_MSFontService, sans-serif;&quot; class=&quot;TextRun SCXW4411604 BCX0&quot; lang=&quot;FR-FR&quot; data-contrast=&quot;none&quot;&gt;cours à l&#39;ouverture&lt;/span&gt;&lt;span style=&quot;-webkit-user-drag: none; -webkit-tap-highlight-color: transparent; margin: 0px; padding: 0px; user-select: text; font-variant-ligatures: none !important; font-size: 12pt; line-height: 20.925px; font-family: Aptos, Aptos_EmbeddedFont, Aptos_MSFontService, sans-serif;&quot; class=&quot;TextRun SCXW4411604 BCX0&quot; lang=&quot;FR-FR&quot; data-contrast=&quot;auto&quot;&gt; et à la &lt;/span&gt;&lt;span style=&quot;-webkit-user-drag: none; -webkit-tap-highlight-color: transparent; margin: 0px; padding: 0px; user-select: text; font-variant-ligatures: none !important; color: rgb(25, 107, 36); font-size: 12pt; line-height: 20.925px; font-family: Aptos, Aptos_EmbeddedFont, Aptos_MSFontService, sans-serif;&quot; class=&quot;TextRun SCXW4411604 BCX0&quot; lang=&quot;FR-FR&quot; data-contrast=&quot;none&quot;&gt;fermeture&lt;/span&gt;&lt;span style=&quot;-webkit-user-drag: none; -webkit-tap-highlight-color: transparent; margin: 0px; padding: 0px; user-select: text; font-variant-ligatures: none !important; font-size: 12pt; line-height: 20.925px; font-family: Aptos, Aptos_EmbeddedFont, Aptos_MSFontService, sans-serif;&quot; class=&quot;TextRun SCXW4411604 BCX0&quot; lang=&quot;FR-FR&quot; data-contrast=&quot;auto&quot;&gt; ainsi que le &lt;/span&gt;&lt;span style=&quot;-webkit-user-drag: none; -webkit-tap-highlight-color: transparent; margin: 0px; padding: 0px; user-select: text; font-variant-ligatures: none !important; color: rgb(25, 107, 36); font-size: 12pt; line-height: 20.925px; font-family: Aptos, Aptos_EmbeddedFont, Aptos_MSFontService, sans-serif;&quot; class=&quot;TextRun SCXW4411604 BCX0&quot; lang=&quot;FR-FR&quot; data-contrast=&quot;none&quot;&gt;cours minimal&lt;/span&gt;&lt;span style=&quot;-webkit-user-drag: none; -webkit-tap-highlight-color: transparent; margin: 0px; padding: 0px; user-select: text; font-variant-ligatures: none !important; font-size: 12pt; line-height: 20.925px; font-family: Aptos, Aptos_EmbeddedFont, Aptos_MSFontService, sans-serif;&quot; class=&quot;TextRun SCXW4411604 BCX0&quot; lang=&quot;FR-FR&quot; data-contrast=&quot;auto&quot;&gt; et &lt;/span&gt;&lt;span style=&quot;-webkit-user-drag: none; -webkit-tap-highlight-color: transparent; margin: 0px; padding: 0px; user-select: text; font-variant-ligatures: none !important; color: rgb(25, 107, 36); font-size: 12pt; line-height: 20.925px; font-family: Aptos, Aptos_EmbeddedFont, Aptos_MSFontService, sans-serif;&quot; class=&quot;TextRun SCXW4411604 BCX0&quot; lang=&quot;FR-FR&quot; data-contrast=&quot;none&quot;&gt;maximal &lt;/span&gt;&lt;span style=&quot;-webkit-user-drag: none; -webkit-tap-highlight-color: transparent; margin: 0px; padding: 0px; user-select: text; font-variant-ligatures: none !important; font-size: 12pt; line-height: 20.925px; font-family: Aptos, Aptos_EmbeddedFont, Aptos_MSFontService, sans-serif;&quot; class=&quot;TextRun SCXW4411604 BCX0&quot; lang=&quot;FR-FR&quot; data-contrast=&quot;auto&quot;&gt;pour chaque séance. &lt;/span&gt;&lt;span style=&quot;-webkit-user-drag: none; -webkit-tap-highlight-color: transparent; margin: 0px; padding: 0px; user-select: text; font-size: 12pt; line-height: 20.925px; font-family: Aptos, Aptos_EmbeddedFont, Aptos_MSFontService, sans-serif;&quot; data-ccp-props=&quot;{&amp;quot;201341983&amp;quot;:0,&amp;quot;335559739&amp;quot;:160,&amp;quot;335559740&amp;quot;:279}&quot; class=&quot;EOP SCXW4411604 BCX0&quot;&gt;&amp;nbsp;&lt;/span&gt;&lt;/p&gt;&lt;/div&gt;&lt;div style=&quot;-webkit-user-drag: none; -webkit-tap-highlight-color: transparent; margin: 0px; padding: 0px; user-select: text; clear: both; cursor: text; overflow: visible; position: relative; direction: ltr; font-family: &amp;quot;Segoe UI&amp;quot;, &amp;quot;Segoe UI Web&amp;quot;, Arial, Verdana, sans-serif; font-size: 12px; font-weight: 400; background-color: rgb(255, 255, 255);&quot; class=&quot;OutlineElement Ltr SCXW4411604 BCX0&quot;&gt;&lt;p style=&quot;-webkit-user-drag: none; -webkit-tap-highlight-color: transparent; margin: 0px 0px 10.6667px; padding: 0px; user-select: text; overflow-wrap: break-word; white-space-collapse: preserve; vertical-align: baseline; font-kerning: none; background-color: transparent; color: windowtext;&quot; lang=&quot;FR-FR&quot; class=&quot;Paragraph SCXW4411604 BCX0&quot;&gt;&lt;span style=&quot;-webkit-user-drag: none; -webkit-tap-highlight-color: transparent; margin: 0px; padding: 0px; user-select: text; font-variant-ligatures: none !important; font-size: 12pt; line-height: 20.925px; font-family: Aptos, Aptos_EmbeddedFont, Aptos_MSFontService, sans-serif;&quot; class=&quot;TextRun SCXW4411604 BCX0&quot; lang=&quot;FR-FR&quot; data-contrast=&quot;auto&quot;&gt;On devra aussi être capable de consulter les actualités liées aux produits financiers. Une &lt;/span&gt;&lt;span style=&quot;-webkit-user-drag: none; -webkit-tap-highlight-color: transparent; margin: 0px; padding: 0px; user-select: text; outline: transparent solid 1px; font-variant-ligatures: none !important; background-color: rgb(255, 0, 255); font-size: 12pt; line-height: 20.925px; font-family: Aptos, Aptos_EmbeddedFont, Aptos_MSFontService, sans-serif;&quot; class=&quot;TextRun Highlight SCXW4411604 BCX0&quot; lang=&quot;FR-FR&quot; data-contrast=&quot;auto&quot;&gt;&lt;span style=&quot;-webkit-user-drag: none; -webkit-tap-highlight-color: transparent; margin: 0px; padding: 0px; user-select: text;&quot; class=&quot;NormalTextRun SCXW4411604 BCX0&quot;&gt;actualité&lt;/span&gt;&lt;/span&gt;&lt;span style=&quot;-webkit-user-drag: none; -webkit-tap-highlight-color: transparent; margin: 0px; padding: 0px; user-select: text; font-variant-ligatures: none !important; font-size: 12pt; line-height: 20.925px; font-family: Aptos, Aptos_EmbeddedFont, Aptos_MSFontService, sans-serif;&quot; class=&quot;TextRun SCXW4411604 BCX0&quot; lang=&quot;FR-FR&quot; data-contrast=&quot;auto&quot;&gt; est composée d&#39;un &lt;/span&gt;&lt;span style=&quot;-webkit-user-drag: none; -webkit-tap-highlight-color: transparent; margin: 0px; padding: 0px; user-select: text; font-variant-ligatures: none !important; color: rgb(160, 43, 147); font-size: 12pt; line-height: 20.925px; font-family: Aptos, Aptos_EmbeddedFont, Aptos_MSFontService, sans-serif;&quot; class=&quot;TextRun SCXW4411604 BCX0&quot; lang=&quot;FR-FR&quot; data-contrast=&quot;none&quot;&gt;titre&lt;/span&gt;&lt;span style=&quot;-webkit-user-drag: none; -webkit-tap-highlight-color: transparent; margin: 0px; padding: 0px; user-select: text; font-variant-ligatures: none !important; font-size: 12pt; line-height: 20.925px; font-family: Aptos, Aptos_EmbeddedFont, Aptos_MSFontService, sans-serif;&quot; class=&quot;TextRun SCXW4411604 BCX0&quot; lang=&quot;FR-FR&quot; data-contrast=&quot;auto&quot;&gt;, des &lt;/span&gt;&lt;span style=&quot;-webkit-user-drag: none; -webkit-tap-highlight-color: transparent; margin: 0px; padding: 0px; user-select: text; font-variant-ligatures: none !important; color: rgb(160, 43, 147); font-size: 12pt; line-height: 20.925px; font-family: Aptos, Aptos_EmbeddedFont, Aptos_MSFontService, sans-serif;&quot; class=&quot;TextRun SCXW4411604 BCX0&quot; lang=&quot;FR-FR&quot; data-contrast=&quot;none&quot;&gt;codes des produits financiers concernés&lt;/span&gt;&lt;span style=&quot;-webkit-user-drag: none; -webkit-tap-highlight-color: transparent; margin: 0px; padding: 0px; user-select: text; font-variant-ligatures: none !important; font-size: 12pt; line-height: 20.925px; font-family: Aptos, Aptos_EmbeddedFont, Aptos_MSFontService, sans-serif;&quot; class=&quot;TextRun SCXW4411604 BCX0&quot; lang=&quot;FR-FR&quot; data-contrast=&quot;auto&quot;&gt;, de la&lt;/span&gt;&lt;span style=&quot;-webkit-user-drag: none; -webkit-tap-highlight-color: transparent; margin: 0px; padding: 0px; user-select: text; font-variant-ligatures: none !important; color: rgb(160, 43, 147); font-size: 12pt; line-height: 20.925px; font-family: Aptos, Aptos_EmbeddedFont, Aptos_MSFontService, sans-serif;&quot; class=&quot;TextRun SCXW4411604 BCX0&quot; lang=&quot;FR-FR&quot; data-contrast=&quot;none&quot;&gt; source&lt;/span&gt;&lt;span style=&quot;-webkit-user-drag: none; -webkit-tap-highlight-color: transparent; margin: 0px; padding: 0px; user-select: text; font-variant-ligatures: none !important; font-size: 12pt; line-height: 20.925px; font-family: Aptos, Aptos_EmbeddedFont, Aptos_MSFontService, sans-serif;&quot; class=&quot;TextRun SCXW4411604 BCX0&quot; lang=&quot;FR-FR&quot; data-contrast=&quot;auto&quot;&gt; de l&#39;information, d&#39;un texte &lt;/span&gt;&lt;span style=&quot;-webkit-user-drag: none; -webkit-tap-highlight-color: transparent; margin: 0px; padding: 0px; user-select: text; font-variant-ligatures: none !important; color: rgb(160, 43, 147); font-size: 12pt; line-height: 20.925px; font-family: Aptos, Aptos_EmbeddedFont, Aptos_MSFontService, sans-serif;&quot; class=&quot;TextRun SCXW4411604 BCX0&quot; lang=&quot;FR-FR&quot; data-contrast=&quot;none&quot;&gt;descriptif&lt;/span&gt;&lt;span style=&quot;-webkit-user-drag: none; -webkit-tap-highlight-color: transparent; margin: 0px; padding: 0px; user-select: text; font-variant-ligatures: none !important; font-size: 12pt; line-height: 20.925px; font-family: Aptos, Aptos_EmbeddedFont, Aptos_MSFontService, sans-serif;&quot; class=&quot;TextRun SCXW4411604 BCX0&quot; lang=&quot;FR-FR&quot; data-contrast=&quot;auto&quot;&gt;, d&#39;un &lt;/span&gt;&lt;span style=&quot;-webkit-user-drag: none; -webkit-tap-highlight-color: transparent; margin: 0px; padding: 0px; user-select: text; font-variant-ligatures: none !important; color: rgb(160, 43, 147); font-size: 12pt; line-height: 20.925px; font-family: Aptos, Aptos_EmbeddedFont, Aptos_MSFontService, sans-serif;&quot; class=&quot;TextRun SCXW4411604 BCX0&quot; lang=&quot;FR-FR&quot; data-contrast=&quot;none&quot;&gt;lien&lt;/span&gt;&lt;span style=&quot;-webkit-user-drag: none; -webkit-tap-highlight-color: transparent; margin: 0px; padding: 0px; user-select: text; font-variant-ligatures: none !important; font-size: 12pt; line-height: 20.925px; font-family: Aptos, Aptos_EmbeddedFont, Aptos_MSFontService, sans-serif;&quot; class=&quot;TextRun SCXW4411604 BCX0&quot; lang=&quot;FR-FR&quot; data-contrast=&quot;auto&quot;&gt; et d&#39;une &lt;/span&gt;&lt;span style=&quot;-webkit-user-drag: none; -webkit-tap-highlight-color: transparent; margin: 0px; padding: 0px; user-select: text; font-variant-ligatures: none !important; color: rgb(160, 43, 147); font-size: 12pt; line-height: 20.925px; font-family: Aptos, Aptos_EmbeddedFont, Aptos_MSFontService, sans-serif;&quot; class=&quot;TextRun SCXW4411604 BCX0&quot; lang=&quot;FR-FR&quot; data-contrast=&quot;none&quot;&gt;date&lt;/span&gt;&lt;span style=&quot;-webkit-user-drag: none; -webkit-tap-highlight-color: transparent; margin: 0px; padding: 0px; user-select: text; font-variant-ligatures: none !important; font-size: 12pt; line-height: 20.925px; font-family: Aptos, Aptos_EmbeddedFont, Aptos_MSFontService, sans-serif;&quot; class=&quot;TextRun SCXW4411604 BCX0&quot; lang=&quot;FR-FR&quot; data-contrast=&quot;auto&quot;&gt;. &lt;/span&gt;&lt;span style=&quot;-webkit-user-drag: none; -webkit-tap-highlight-color: transparent; margin: 0px; padding: 0px; user-select: text; font-size: 12pt; line-height: 20.925px; font-family: Aptos, Aptos_EmbeddedFont, Aptos_MSFontService, sans-serif;&quot; data-ccp-props=&quot;{&amp;quot;201341983&amp;quot;:0,&amp;quot;335559739&amp;quot;:160,&amp;quot;335559740&amp;quot;:279}&quot; class=&quot;EOP SCXW4411604 BCX0&quot;&gt;&amp;nbsp;&lt;/span&gt;&lt;/p&gt;&lt;/div&gt;&lt;div style=&quot;-webkit-user-drag: none; -webkit-tap-highlight-color: transparent; margin: 0px; padding: 0px; user-select: text; clear: both; cursor: text; overflow: visible; position: relative; direction: ltr; font-family: &amp;quot;Segoe UI&amp;quot;, &amp;quot;Segoe UI Web&amp;quot;, Arial, Verdana, sans-serif; font-size: 12px; font-weight: 400; background-color: rgb(255, 255, 255);&quot; class=&quot;OutlineElement Ltr SCXW4411604 BCX0&quot;&gt;&lt;p style=&quot;-webkit-user-drag: none; -webkit-tap-highlight-color: transparent; margin: 0px 0px 10.6667px; padding: 0px; user-select: text; overflow-wrap: break-word; white-space-collapse: preserve; vertical-align: baseline; font-kerning: none; background-color: transparent; color: windowtext;&quot; lang=&quot;FR-FR&quot; class=&quot;Paragraph SCXW4411604 BCX0&quot;&gt;&lt;span style=&quot;-webkit-user-drag: none; -webkit-tap-highlight-color: transparent; margin: 0px; padding: 0px; user-select: text; font-variant-ligatures: none !important; font-size: 12pt; line-height: 20.925px; font-family: Aptos, Aptos_EmbeddedFont, Aptos_MSFontService, sans-serif;&quot; class=&quot;TextRun SCXW4411604 BCX0&quot; lang=&quot;FR-FR&quot; data-contrast=&quot;auto&quot;&gt;&lt;u&gt;Un produit financier est soit une action, soit un indice. Tous les deux appartiennent à un marché.&lt;/u&gt; &lt;/span&gt;&lt;span style=&quot;-webkit-user-drag: none; -webkit-tap-highlight-color: transparent; margin: 0px; padding: 0px; user-select: text; font-size: 12pt; line-height: 20.925px; font-family: Aptos, Aptos_EmbeddedFont, Aptos_MSFontService, sans-serif;&quot; data-ccp-props=&quot;{&amp;quot;201341983&amp;quot;:0,&amp;quot;335559739&amp;quot;:160,&amp;quot;335559740&amp;quot;:279}&quot; class=&quot;EOP SCXW4411604 BCX0&quot;&gt;&amp;nbsp;&lt;/span&gt;&lt;/p&gt;&lt;/div&gt;&lt;div style=&quot;-webkit-user-drag: none; -webkit-tap-highlight-color: transparent; margin: 0px; padding: 0px; user-select: text; clear: both; cursor: text; overflow: visible; position: relative; direction: ltr; font-family: &amp;quot;Segoe UI&amp;quot;, &amp;quot;Segoe UI Web&amp;quot;, Arial, Verdana, sans-serif; font-size: 12px; font-weight: 400; background-color: rgb(255, 255, 255);&quot; class=&quot;OutlineElement Ltr SCXW4411604 BCX0&quot;&gt;&lt;p style=&quot;-webkit-user-drag: none; -webkit-tap-highlight-color: transparent; margin: 0px 0px 10.6667px; padding: 0px; user-select: text; overflow-wrap: break-word; white-space-collapse: preserve; vertical-align: baseline; font-kerning: none; background-color: transparent; color: windowtext;&quot; lang=&quot;FR-FR&quot; class=&quot;Paragraph SCXW4411604 BCX0&quot;&gt;&lt;span style=&quot;-webkit-user-drag: none; -webkit-tap-highlight-color: transparent; margin: 0px; padding: 0px; user-select: text; font-variant-ligatures: none !important; font-size: 12pt; line-height: 20.925px; font-family: Aptos, Aptos_EmbeddedFont, Aptos_MSFontService, sans-serif;&quot; class=&quot;TextRun SCXW4411604 BCX0&quot; lang=&quot;FR-FR&quot; data-contrast=&quot;auto&quot;&gt;Un &lt;/span&gt;&lt;span style=&quot;-webkit-user-drag: none; -webkit-tap-highlight-color: transparent; margin: 0px; padding: 0px; user-select: text; outline: transparent solid 1px; font-variant-ligatures: none !important; background-color: rgb(255, 255, 0); font-size: 12pt; line-height: 20.925px; font-family: Aptos, Aptos_EmbeddedFont, Aptos_MSFontService, sans-serif;&quot; class=&quot;TextRun Highlight SCXW4411604 BCX0&quot; lang=&quot;FR-FR&quot; data-contrast=&quot;auto&quot;&gt;&lt;span style=&quot;-webkit-user-drag: none; -webkit-tap-highlight-color: transparent; margin: 0px; padding: 0px; user-select: text;&quot; class=&quot;NormalTextRun SCXW4411604 BCX0&quot;&gt;marché&lt;/span&gt;&lt;/span&gt;&lt;span style=&quot;-webkit-user-drag: none; -webkit-tap-highlight-color: transparent; margin: 0px; padding: 0px; user-select: text; font-variant-ligatures: none !important; font-size: 12pt; line-height: 20.925px; font-family: Aptos, Aptos_EmbeddedFont, Aptos_MSFontService, sans-serif;&quot; class=&quot;TextRun SCXW4411604 BCX0&quot; lang=&quot;FR-FR&quot; data-contrast=&quot;auto&quot;&gt; est identifié par son &lt;/span&gt;&lt;span style=&quot;-webkit-user-drag: none; -webkit-tap-highlight-color: transparent; margin: 0px; padding: 0px; user-select: text; font-variant-ligatures: none !important; color: rgb(255, 192, 0); font-size: 12pt; line-height: 20.925px; font-family: Aptos, Aptos_EmbeddedFont, Aptos_MSFontService, sans-serif;&quot; class=&quot;TextRun SCXW4411604 BCX0&quot; lang=&quot;FR-FR&quot; data-contrast=&quot;none&quot;&gt;nom&lt;/span&gt;&lt;span style=&quot;-webkit-user-drag: none; -webkit-tap-highlight-color: transparent; margin: 0px; padding: 0px; user-select: text; font-variant-ligatures: none !important; font-size: 12pt; line-height: 20.925px; font-family: Aptos, Aptos_EmbeddedFont, Aptos_MSFontService, sans-serif;&quot; class=&quot;TextRun SCXW4411604 BCX0&quot; lang=&quot;FR-FR&quot; data-contrast=&quot;auto&quot;&gt;, sa &lt;/span&gt;&lt;span style=&quot;-webkit-user-drag: none; -webkit-tap-highlight-color: transparent; margin: 0px; padding: 0px; user-select: text; font-variant-ligatures: none !important; color: rgb(255, 192, 0); font-size: 12pt; line-height: 20.925px; font-family: Aptos, Aptos_EmbeddedFont, Aptos_MSFontService, sans-serif;&quot; class=&quot;TextRun SCXW4411604 BCX0&quot; lang=&quot;FR-FR&quot; data-contrast=&quot;none&quot;&gt;ville&lt;/span&gt;&lt;span style=&quot;-webkit-user-drag: none; -webkit-tap-highlight-color: transparent; margin: 0px; padding: 0px; user-select: text; font-variant-ligatures: none !important; font-size: 12pt; line-height: 20.925px; font-family: Aptos, Aptos_EmbeddedFont, Aptos_MSFontService, sans-serif;&quot; class=&quot;TextRun SCXW4411604 BCX0&quot; lang=&quot;FR-FR&quot; data-contrast=&quot;auto&quot;&gt; et son &lt;/span&gt;&lt;span style=&quot;-webkit-user-drag: none; -webkit-tap-highlight-color: transparent; margin: 0px; padding: 0px; user-select: text; font-variant-ligatures: none !important; color: rgb(255, 192, 0); font-size: 12pt; line-height: 20.925px; font-family: Aptos, Aptos_EmbeddedFont, Aptos_MSFontService, sans-serif;&quot; class=&quot;TextRun SCXW4411604 BCX0&quot; lang=&quot;FR-FR&quot; data-contrast=&quot;none&quot;&gt;pays&lt;/span&gt;&lt;span style=&quot;-webkit-user-drag: none; -webkit-tap-highlight-color: transparent; margin: 0px; padding: 0px; user-select: text; font-variant-ligatures: none !important; font-size: 12pt; line-height: 20.925px; font-family: Aptos, Aptos_EmbeddedFont, Aptos_MSFontService, sans-serif;&quot; class=&quot;TextRun SCXW4411604 BCX0&quot; lang=&quot;FR-FR&quot; data-contrast=&quot;auto&quot;&gt; et &lt;/span&gt;&lt;span style=&quot;-webkit-user-drag: none; -webkit-tap-highlight-color: transparent; margin: 0px; padding: 0px; user-select: text; font-variant-ligatures: none !important; color: rgb(255, 192, 0); font-size: 12pt; line-height: 20.925px; font-family: Aptos, Aptos_EmbeddedFont, Aptos_MSFontService, sans-serif;&quot; class=&quot;TextRun SCXW4411604 BCX0&quot; lang=&quot;FR-FR&quot; data-contrast=&quot;none&quot;&gt;&lt;u&gt;travaille avec une seule devise&lt;/u&gt;&lt;/span&gt;&lt;span style=&quot;-webkit-user-drag: none; -webkit-tap-highlight-color: transparent; margin: 0px; padding: 0px; user-select: text; font-variant-ligatures: none !important; font-size: 12pt; line-height: 20.925px; font-family: Aptos, Aptos_EmbeddedFont, Aptos_MSFontService, sans-serif;&quot; class=&quot;TextRun SCXW4411604 BCX0&quot; lang=&quot;FR-FR&quot; data-contrast=&quot;auto&quot;&gt;. &lt;/span&gt;&lt;span style=&quot;-webkit-user-drag: none; -webkit-tap-highlight-color: transparent; margin: 0px; padding: 0px; user-select: text; font-size: 12pt; line-height: 20.925px; font-family: Aptos, Aptos_EmbeddedFont, Aptos_MSFontService, sans-serif;&quot; data-ccp-props=&quot;{&amp;quot;201341983&amp;quot;:0,&amp;quot;335559739&amp;quot;:160,&amp;quot;335559740&amp;quot;:279}&quot; class=&quot;EOP SCXW4411604 BCX0&quot;&gt;&amp;nbsp;&lt;/span&gt;&lt;/p&gt;&lt;/div&gt;&lt;div style=&quot;-webkit-user-drag: none; -webkit-tap-highlight-color: transparent; margin: 0px; padding: 0px; user-select: text; clear: both; cursor: text; overflow: visible; position: relative; direction: ltr; font-family: &amp;quot;Segoe UI&amp;quot;, &amp;quot;Segoe UI Web&amp;quot;, Arial, Verdana, sans-serif; font-size: 12px; font-weight: 400; background-color: rgb(255, 255, 255);&quot; class=&quot;OutlineElement Ltr SCXW4411604 BCX0&quot;&gt;&lt;p style=&quot;-webkit-user-drag: none; -webkit-tap-highlight-color: transparent; margin: 0px 0px 10.6667px; padding: 0px; user-select: text; overflow-wrap: break-word; white-space-collapse: preserve; vertical-align: baseline; font-kerning: none; background-color: transparent; color: windowtext;&quot; lang=&quot;FR-FR&quot; class=&quot;Paragraph SCXW4411604 BCX0&quot;&gt;&lt;span style=&quot;-webkit-user-drag: none; -webkit-tap-highlight-color: transparent; margin: 0px; padding: 0px; user-select: text; font-variant-ligatures: none !important; font-size: 12pt; line-height: 20.925px; font-family: Aptos, Aptos_EmbeddedFont, Aptos_MSFontService, sans-serif;&quot; class=&quot;TextRun SCXW4411604 BCX0&quot; lang=&quot;FR-FR&quot; data-contrast=&quot;auto&quot;&gt;Un indice est un produit financier qui est un panier pondéré d&#39;actions d&#39;un même marché. Par exemple, l&#39;indice &quot;Big Bang&quot; contient 1000 actions dont 500 de Dexia, 300 de KBC et 200 d&#39;ING. Le cours d&#39;un indice est la somme pondérée des cours des actions dont il est composé. &lt;/span&gt;&lt;span style=&quot;-webkit-user-drag: none; -webkit-tap-highlight-color: transparent; margin: 0px; padding: 0px; user-select: text; font-size: 12pt; line-height: 20.925px; font-family: Aptos, Aptos_EmbeddedFont, Aptos_MSFontService, sans-serif;&quot; data-ccp-props=&quot;{&amp;quot;201341983&amp;quot;:0,&amp;quot;335559739&amp;quot;:160,&amp;quot;335559740&amp;quot;:279}&quot; class=&quot;EOP SCXW4411604 BCX0&quot;&gt;&amp;nbsp;&lt;/span&gt;&lt;/p&gt;&lt;/div&gt;&lt;div style=&quot;-webkit-user-drag: none; -webkit-tap-highlight-color: transparent; margin: 0px; padding: 0px; user-select: text; clear: both; cursor: text; overflow: visible; position: relative; direction: ltr; font-family: &amp;quot;Segoe UI&amp;quot;, &amp;quot;Segoe UI Web&amp;quot;, Arial, Verdana, sans-serif; font-size: 12px; font-weight: 400; background-color: rgb(255, 255, 255);&quot; class=&quot;OutlineElement Ltr SCXW4411604 BCX0&quot;&gt;&lt;p style=&quot;-webkit-user-drag: none; -webkit-tap-highlight-color: transparent; margin: 0px 0px 10.6667px; padding: 0px; user-select: text; overflow-wrap: break-word; white-space-collapse: preserve; vertical-align: baseline; font-kerning: none; background-color: transparent; color: windowtext;&quot; lang=&quot;FR-FR&quot; class=&quot;Paragraph SCXW4411604 BCX0&quot;&gt;&lt;span style=&quot;-webkit-user-drag: none; -webkit-tap-highlight-color: transparent; margin: 0px; padding: 0px; user-select: text; font-variant-ligatures: none !important; font-size: 12pt; line-height: 20.925px; font-family: Aptos, Aptos_EmbeddedFont, Aptos_MSFontService, sans-serif;&quot; class=&quot;TextRun SCXW4411604 BCX0&quot; lang=&quot;FR-FR&quot; data-contrast=&quot;auto&quot;&gt;Le volume du jour d&#39;une action représente le nombre d&#39;actions échangées ce jour.&lt;/span&gt;&lt;span style=&quot;-webkit-user-drag: none; -webkit-tap-highlight-color: transparent; margin: 0px; padding: 0px; user-select: text; font-size: 12pt; line-height: 20.925px; font-family: Aptos, Aptos_EmbeddedFont, Aptos_MSFontService, sans-serif;&quot; data-ccp-props=&quot;{&amp;quot;201341983&amp;quot;:0,&amp;quot;335559739&amp;quot;:160,&amp;quot;335559740&amp;quot;:279}&quot; class=&quot;EOP SCXW4411604 BCX0&quot;&gt;&amp;nbsp;&lt;/span&gt;&lt;/p&gt;&lt;/div&gt;&lt;/h1&gt;" style="text;html=1;whiteSpace=wrap;overflow=hidden;rounded=0;" vertex="1" parent="1">
          <mxGeometry x="9" y="10" width="810" height="460" as="geometry" />
        </mxCell>
        <mxCell id="YfAJHf1cl0Xpq2evbPGr-2" value="T_produit_fiancier" style="swimlane;fontStyle=0;childLayout=stackLayout;horizontal=1;startSize=30;horizontalStack=0;resizeParent=1;resizeParentMax=0;resizeLast=0;collapsible=1;marginBottom=0;whiteSpace=wrap;html=1;fillColor=#1ba1e2;fontColor=#ffffff;strokeColor=#006EAF;" vertex="1" parent="1">
          <mxGeometry x="40" y="525" width="140" height="120" as="geometry" />
        </mxCell>
        <mxCell id="YfAJHf1cl0Xpq2evbPGr-3" value="&lt;b&gt;&lt;u&gt;Code&lt;/u&gt;&lt;/b&gt;" style="text;strokeColor=none;fillColor=none;align=left;verticalAlign=middle;spacingLeft=4;spacingRight=4;overflow=hidden;points=[[0,0.5],[1,0.5]];portConstraint=eastwest;rotatable=0;whiteSpace=wrap;html=1;" vertex="1" parent="YfAJHf1cl0Xpq2evbPGr-2">
          <mxGeometry y="30" width="140" height="30" as="geometry" />
        </mxCell>
        <mxCell id="YfAJHf1cl0Xpq2evbPGr-4" value="Nom" style="text;strokeColor=none;fillColor=none;align=left;verticalAlign=middle;spacingLeft=4;spacingRight=4;overflow=hidden;points=[[0,0.5],[1,0.5]];portConstraint=eastwest;rotatable=0;whiteSpace=wrap;html=1;" vertex="1" parent="YfAJHf1cl0Xpq2evbPGr-2">
          <mxGeometry y="60" width="140" height="30" as="geometry" />
        </mxCell>
        <mxCell id="YfAJHf1cl0Xpq2evbPGr-17" value="&lt;strike&gt;Marche&lt;/strike&gt;" style="text;strokeColor=none;fillColor=none;align=left;verticalAlign=middle;spacingLeft=4;spacingRight=4;overflow=hidden;points=[[0,0.5],[1,0.5]];portConstraint=eastwest;rotatable=0;whiteSpace=wrap;html=1;" vertex="1" parent="YfAJHf1cl0Xpq2evbPGr-2">
          <mxGeometry y="90" width="140" height="30" as="geometry" />
        </mxCell>
        <mxCell id="YfAJHf1cl0Xpq2evbPGr-6" value="T_historique_cours" style="swimlane;fontStyle=0;childLayout=stackLayout;horizontal=1;startSize=30;horizontalStack=0;resizeParent=1;resizeParentMax=0;resizeLast=0;collapsible=1;marginBottom=0;whiteSpace=wrap;html=1;fillColor=#60a917;fontColor=#ffffff;strokeColor=#2D7600;" vertex="1" parent="1">
          <mxGeometry x="300" y="525" width="140" height="210" as="geometry" />
        </mxCell>
        <mxCell id="YfAJHf1cl0Xpq2evbPGr-7" value="&lt;b&gt;&lt;u&gt;Id&lt;/u&gt;&lt;/b&gt;" style="text;strokeColor=none;fillColor=none;align=left;verticalAlign=middle;spacingLeft=4;spacingRight=4;overflow=hidden;points=[[0,0.5],[1,0.5]];portConstraint=eastwest;rotatable=0;whiteSpace=wrap;html=1;" vertex="1" parent="YfAJHf1cl0Xpq2evbPGr-6">
          <mxGeometry y="30" width="140" height="30" as="geometry" />
        </mxCell>
        <mxCell id="YfAJHf1cl0Xpq2evbPGr-8" value="Volume" style="text;strokeColor=none;fillColor=none;align=left;verticalAlign=middle;spacingLeft=4;spacingRight=4;overflow=hidden;points=[[0,0.5],[1,0.5]];portConstraint=eastwest;rotatable=0;whiteSpace=wrap;html=1;" vertex="1" parent="YfAJHf1cl0Xpq2evbPGr-6">
          <mxGeometry y="60" width="140" height="30" as="geometry" />
        </mxCell>
        <mxCell id="YfAJHf1cl0Xpq2evbPGr-9" value="Ouverture" style="text;strokeColor=none;fillColor=none;align=left;verticalAlign=middle;spacingLeft=4;spacingRight=4;overflow=hidden;points=[[0,0.5],[1,0.5]];portConstraint=eastwest;rotatable=0;whiteSpace=wrap;html=1;" vertex="1" parent="YfAJHf1cl0Xpq2evbPGr-6">
          <mxGeometry y="90" width="140" height="30" as="geometry" />
        </mxCell>
        <mxCell id="YfAJHf1cl0Xpq2evbPGr-10" value="Fermeture" style="text;strokeColor=none;fillColor=none;align=left;verticalAlign=middle;spacingLeft=4;spacingRight=4;overflow=hidden;points=[[0,0.5],[1,0.5]];portConstraint=eastwest;rotatable=0;whiteSpace=wrap;html=1;" vertex="1" parent="YfAJHf1cl0Xpq2evbPGr-6">
          <mxGeometry y="120" width="140" height="30" as="geometry" />
        </mxCell>
        <mxCell id="YfAJHf1cl0Xpq2evbPGr-11" value="Min" style="text;strokeColor=none;fillColor=none;align=left;verticalAlign=middle;spacingLeft=4;spacingRight=4;overflow=hidden;points=[[0,0.5],[1,0.5]];portConstraint=eastwest;rotatable=0;whiteSpace=wrap;html=1;" vertex="1" parent="YfAJHf1cl0Xpq2evbPGr-6">
          <mxGeometry y="150" width="140" height="30" as="geometry" />
        </mxCell>
        <mxCell id="YfAJHf1cl0Xpq2evbPGr-12" value="Max" style="text;strokeColor=none;fillColor=none;align=left;verticalAlign=middle;spacingLeft=4;spacingRight=4;overflow=hidden;points=[[0,0.5],[1,0.5]];portConstraint=eastwest;rotatable=0;whiteSpace=wrap;html=1;" vertex="1" parent="YfAJHf1cl0Xpq2evbPGr-6">
          <mxGeometry y="180" width="140" height="30" as="geometry" />
        </mxCell>
        <mxCell id="YfAJHf1cl0Xpq2evbPGr-13" value="T_actualite" style="swimlane;fontStyle=0;childLayout=stackLayout;horizontal=1;startSize=30;horizontalStack=0;resizeParent=1;resizeParentMax=0;resizeLast=0;collapsible=1;marginBottom=0;whiteSpace=wrap;html=1;fillColor=#d80073;fontColor=#ffffff;strokeColor=#A50040;" vertex="1" parent="1">
          <mxGeometry x="550" y="525" width="140" height="240" as="geometry" />
        </mxCell>
        <mxCell id="YfAJHf1cl0Xpq2evbPGr-14" value="&lt;b&gt;&lt;u&gt;Id&lt;/u&gt;&lt;/b&gt;" style="text;strokeColor=none;fillColor=none;align=left;verticalAlign=middle;spacingLeft=4;spacingRight=4;overflow=hidden;points=[[0,0.5],[1,0.5]];portConstraint=eastwest;rotatable=0;whiteSpace=wrap;html=1;" vertex="1" parent="YfAJHf1cl0Xpq2evbPGr-13">
          <mxGeometry y="30" width="140" height="30" as="geometry" />
        </mxCell>
        <mxCell id="YfAJHf1cl0Xpq2evbPGr-15" value="Titre" style="text;strokeColor=none;fillColor=none;align=left;verticalAlign=middle;spacingLeft=4;spacingRight=4;overflow=hidden;points=[[0,0.5],[1,0.5]];portConstraint=eastwest;rotatable=0;whiteSpace=wrap;html=1;" vertex="1" parent="YfAJHf1cl0Xpq2evbPGr-13">
          <mxGeometry y="60" width="140" height="30" as="geometry" />
        </mxCell>
        <mxCell id="YfAJHf1cl0Xpq2evbPGr-16" value="&lt;strike&gt;Produit concerné&lt;/strike&gt;" style="text;strokeColor=none;fillColor=none;align=left;verticalAlign=middle;spacingLeft=4;spacingRight=4;overflow=hidden;points=[[0,0.5],[1,0.5]];portConstraint=eastwest;rotatable=0;whiteSpace=wrap;html=1;" vertex="1" parent="YfAJHf1cl0Xpq2evbPGr-13">
          <mxGeometry y="90" width="140" height="30" as="geometry" />
        </mxCell>
        <mxCell id="YfAJHf1cl0Xpq2evbPGr-18" value="Source" style="text;strokeColor=none;fillColor=none;align=left;verticalAlign=middle;spacingLeft=4;spacingRight=4;overflow=hidden;points=[[0,0.5],[1,0.5]];portConstraint=eastwest;rotatable=0;whiteSpace=wrap;html=1;" vertex="1" parent="YfAJHf1cl0Xpq2evbPGr-13">
          <mxGeometry y="120" width="140" height="30" as="geometry" />
        </mxCell>
        <mxCell id="YfAJHf1cl0Xpq2evbPGr-19" value="Descriptif" style="text;strokeColor=none;fillColor=none;align=left;verticalAlign=middle;spacingLeft=4;spacingRight=4;overflow=hidden;points=[[0,0.5],[1,0.5]];portConstraint=eastwest;rotatable=0;whiteSpace=wrap;html=1;" vertex="1" parent="YfAJHf1cl0Xpq2evbPGr-13">
          <mxGeometry y="150" width="140" height="30" as="geometry" />
        </mxCell>
        <mxCell id="YfAJHf1cl0Xpq2evbPGr-20" value="Lien" style="text;strokeColor=none;fillColor=none;align=left;verticalAlign=middle;spacingLeft=4;spacingRight=4;overflow=hidden;points=[[0,0.5],[1,0.5]];portConstraint=eastwest;rotatable=0;whiteSpace=wrap;html=1;" vertex="1" parent="YfAJHf1cl0Xpq2evbPGr-13">
          <mxGeometry y="180" width="140" height="30" as="geometry" />
        </mxCell>
        <mxCell id="YfAJHf1cl0Xpq2evbPGr-21" value="Date" style="text;strokeColor=none;fillColor=none;align=left;verticalAlign=middle;spacingLeft=4;spacingRight=4;overflow=hidden;points=[[0,0.5],[1,0.5]];portConstraint=eastwest;rotatable=0;whiteSpace=wrap;html=1;" vertex="1" parent="YfAJHf1cl0Xpq2evbPGr-13">
          <mxGeometry y="210" width="140" height="30" as="geometry" />
        </mxCell>
        <mxCell id="YfAJHf1cl0Xpq2evbPGr-22" value="T_marche" style="swimlane;fontStyle=0;childLayout=stackLayout;horizontal=1;startSize=30;horizontalStack=0;resizeParent=1;resizeParentMax=0;resizeLast=0;collapsible=1;marginBottom=0;whiteSpace=wrap;html=1;fillColor=#e3c800;fontColor=#000000;strokeColor=#B09500;" vertex="1" parent="1">
          <mxGeometry x="50" y="735" width="140" height="150" as="geometry" />
        </mxCell>
        <mxCell id="YfAJHf1cl0Xpq2evbPGr-23" value="Id" style="text;strokeColor=none;fillColor=none;align=left;verticalAlign=middle;spacingLeft=4;spacingRight=4;overflow=hidden;points=[[0,0.5],[1,0.5]];portConstraint=eastwest;rotatable=0;whiteSpace=wrap;html=1;" vertex="1" parent="YfAJHf1cl0Xpq2evbPGr-22">
          <mxGeometry y="30" width="140" height="30" as="geometry" />
        </mxCell>
        <mxCell id="YfAJHf1cl0Xpq2evbPGr-24" value="Nom" style="text;strokeColor=none;fillColor=none;align=left;verticalAlign=middle;spacingLeft=4;spacingRight=4;overflow=hidden;points=[[0,0.5],[1,0.5]];portConstraint=eastwest;rotatable=0;whiteSpace=wrap;html=1;" vertex="1" parent="YfAJHf1cl0Xpq2evbPGr-22">
          <mxGeometry y="60" width="140" height="30" as="geometry" />
        </mxCell>
        <mxCell id="YfAJHf1cl0Xpq2evbPGr-25" value="Ville" style="text;strokeColor=none;fillColor=none;align=left;verticalAlign=middle;spacingLeft=4;spacingRight=4;overflow=hidden;points=[[0,0.5],[1,0.5]];portConstraint=eastwest;rotatable=0;whiteSpace=wrap;html=1;" vertex="1" parent="YfAJHf1cl0Xpq2evbPGr-22">
          <mxGeometry y="90" width="140" height="30" as="geometry" />
        </mxCell>
        <mxCell id="YfAJHf1cl0Xpq2evbPGr-26" value="Pays" style="text;strokeColor=none;fillColor=none;align=left;verticalAlign=middle;spacingLeft=4;spacingRight=4;overflow=hidden;points=[[0,0.5],[1,0.5]];portConstraint=eastwest;rotatable=0;whiteSpace=wrap;html=1;" vertex="1" parent="YfAJHf1cl0Xpq2evbPGr-22">
          <mxGeometry y="120" width="140" height="30" as="geometry" />
        </mxCell>
        <mxCell id="YfAJHf1cl0Xpq2evbPGr-28" value="T_action" style="swimlane;fontStyle=0;childLayout=stackLayout;horizontal=1;startSize=30;horizontalStack=0;resizeParent=1;resizeParentMax=0;resizeLast=0;collapsible=1;marginBottom=0;whiteSpace=wrap;html=1;fillColor=#a0522d;fontColor=#ffffff;strokeColor=#6D1F00;" vertex="1" parent="1">
          <mxGeometry x="260" y="860" width="140" height="120" as="geometry" />
        </mxCell>
        <mxCell id="YfAJHf1cl0Xpq2evbPGr-29" value="Item 1" style="text;strokeColor=none;fillColor=none;align=left;verticalAlign=middle;spacingLeft=4;spacingRight=4;overflow=hidden;points=[[0,0.5],[1,0.5]];portConstraint=eastwest;rotatable=0;whiteSpace=wrap;html=1;" vertex="1" parent="YfAJHf1cl0Xpq2evbPGr-28">
          <mxGeometry y="30" width="140" height="30" as="geometry" />
        </mxCell>
        <mxCell id="YfAJHf1cl0Xpq2evbPGr-30" value="Item 2" style="text;strokeColor=none;fillColor=none;align=left;verticalAlign=middle;spacingLeft=4;spacingRight=4;overflow=hidden;points=[[0,0.5],[1,0.5]];portConstraint=eastwest;rotatable=0;whiteSpace=wrap;html=1;" vertex="1" parent="YfAJHf1cl0Xpq2evbPGr-28">
          <mxGeometry y="60" width="140" height="30" as="geometry" />
        </mxCell>
        <mxCell id="YfAJHf1cl0Xpq2evbPGr-31" value="Item 3" style="text;strokeColor=none;fillColor=none;align=left;verticalAlign=middle;spacingLeft=4;spacingRight=4;overflow=hidden;points=[[0,0.5],[1,0.5]];portConstraint=eastwest;rotatable=0;whiteSpace=wrap;html=1;" vertex="1" parent="YfAJHf1cl0Xpq2evbPGr-28">
          <mxGeometry y="90" width="140" height="30" as="geometry" />
        </mxCell>
        <mxCell id="YfAJHf1cl0Xpq2evbPGr-32" value="T_Indice" style="swimlane;fontStyle=0;childLayout=stackLayout;horizontal=1;startSize=30;horizontalStack=0;resizeParent=1;resizeParentMax=0;resizeLast=0;collapsible=1;marginBottom=0;whiteSpace=wrap;html=1;fillColor=#fa6800;fontColor=#000000;strokeColor=#C73500;" vertex="1" parent="1">
          <mxGeometry x="470" y="860" width="140" height="120" as="geometry" />
        </mxCell>
        <mxCell id="YfAJHf1cl0Xpq2evbPGr-33" value="Item 1" style="text;strokeColor=none;fillColor=none;align=left;verticalAlign=middle;spacingLeft=4;spacingRight=4;overflow=hidden;points=[[0,0.5],[1,0.5]];portConstraint=eastwest;rotatable=0;whiteSpace=wrap;html=1;" vertex="1" parent="YfAJHf1cl0Xpq2evbPGr-32">
          <mxGeometry y="30" width="140" height="30" as="geometry" />
        </mxCell>
        <mxCell id="YfAJHf1cl0Xpq2evbPGr-34" value="Item 2" style="text;strokeColor=none;fillColor=none;align=left;verticalAlign=middle;spacingLeft=4;spacingRight=4;overflow=hidden;points=[[0,0.5],[1,0.5]];portConstraint=eastwest;rotatable=0;whiteSpace=wrap;html=1;" vertex="1" parent="YfAJHf1cl0Xpq2evbPGr-32">
          <mxGeometry y="60" width="140" height="30" as="geometry" />
        </mxCell>
        <mxCell id="YfAJHf1cl0Xpq2evbPGr-35" value="Item 3" style="text;strokeColor=none;fillColor=none;align=left;verticalAlign=middle;spacingLeft=4;spacingRight=4;overflow=hidden;points=[[0,0.5],[1,0.5]];portConstraint=eastwest;rotatable=0;whiteSpace=wrap;html=1;" vertex="1" parent="YfAJHf1cl0Xpq2evbPGr-32">
          <mxGeometry y="90" width="140" height="30" as="geometry" />
        </mxCell>
      </root>
    </mxGraphModel>
  </diagram>
</mxfile>
